<svg xmlns="http://www.w3.org/2000/svg" width="1024" height="1024" viewBox="0 0 512 512" fill="none" role="img" aria-label="KBHE Configurator icon">
  <rect x="24" y="24" width="464" height="464" rx="112" fill="#2563EB"/>

  <g transform="translate(96 96) scale(13.3333)" fill="none" stroke="#FFFFFF" stroke-width="2" stroke-linecap="round" stroke-linejoin="round">
    <path d="M2 8a2 2 0 0 1 2 -2h16a2 2 0 0 1 2 2v8a2 2 0 0 1 -2 2h-16a2 2 0 0 1 -2 -2l0 -8" />
    <path d="M6 10l0 .01" />
    <path d="M10 10l0 .01" />
    <path d="M14 10l0 .01" />
    <path d="M18 10l0 .01" />
    <path d="M6 14l0 .01" />
    <path d="M18 14l0 .01" />
    <path d="M10 14l4 .01" />
  </g>
</svg>
